<svg version="1.1" viewBox="0.0 0.0 1055.6089238845145 499.4803149606299" fill="none" stroke="none" stroke-linecap="square" stroke-miterlimit="10" xmlns:xlink="http://www.w3.org/1999/xlink" xmlns="http://www.w3.org/2000/svg"><clipPath id="p.0"><path d="m0 0l1055.6089 0l0 499.48032l-1055.6089 0l0 -499.48032z" clip-rule="nonzero"/></clipPath><g clip-path="url(#p.0)"><path fill="#000000" fill-opacity="0.0" d="m0 0l1055.6089 0l0 499.48032l-1055.6089 0z" fill-rule="evenodd"/><path fill="#000000" fill-opacity="0.0" d="m23.89239 234.05774l1024.0315 0l0 216.12598l-1024.0315 0z" fill-rule="evenodd"/><path fill="#000000" d="m121.79604 372.25775l-20.046875 0l31.921883 -43.4375l-30.250008 -40.5625l20.765625 0l19.921883 27.59375l19.796875 -27.59375l20.046875 0l-29.890625 40.5625l32.40625 43.4375l-20.765625 0l-21.953125 -30.59375l-21.953133 30.59375zm71.75492 -84.0l39.484375 0q12.59375 0 20.515625 6.421875q7.921875 6.421875 7.921875 16.625q0 5.515625 -2.765625 10.078125q-2.765625 4.5625 -7.5625 7.5625q6.0 2.875 9.59375 7.859375q3.609375 4.96875 3.609375 11.09375q0 10.921875 -8.109375 17.640625q-8.09375 6.71875 -21.296875 6.71875l-41.390625 0l0 -84.0zm38.390625 14.40625l-21.0 0l0 19.90625l21.0 0q5.53125 0 8.890625 -2.6875q3.359375 -2.703125 3.359375 -7.265625q0 -4.5625 -3.359375 -7.25q-3.359375 -2.703125 -8.890625 -2.703125zm1.6875 55.1875q6.0 0 9.59375 -2.9375q3.609375 -2.9375 3.609375 -7.96875q0 -4.8125 -3.609375 -7.8125q-3.59375 -3.0 -9.59375 -3.0l-22.6875 0l0 21.71875l22.6875 0zm56.516785 -48.109375l0 36.359375q0 6.0 3.53125 9.609375q3.546875 3.59375 9.4375 3.59375q4.1875 0 7.484375 -1.625q3.3125 -1.625 5.46875 -4.625l0 -43.3125l16.4375 0l0 62.515625l-16.4375 0l0 -5.046875q-3.59375 3.0 -8.046875 4.625q-4.4375 1.625 -9.59375 1.625q-10.796875 0 -17.765625 -7.015625q-6.953125 -7.03125 -6.953125 -17.953125l0 -38.75l16.4375 0zm63.363068 -7.4375q-3.84375 0 -6.609375 -2.765625q-2.75 -2.765625 -2.75 -6.59375q0 -3.84375 2.75 -6.609375q2.765625 -2.765625 6.609375 -2.765625q3.84375 0 6.59375 2.765625q2.765625 2.765625 2.765625 6.609375q0 3.828125 -2.765625 6.59375q-2.75 2.765625 -6.59375 2.765625zm8.28125 7.4375l0 62.515625l-16.4375 0l0 -62.515625l16.4375 0zm29.279968 -25.078125l0 87.59375l-16.4375 0l0 -84.0l16.4375 -3.59375zm59.514343 87.59375l0 -5.15625q-3.71875 3.0 -8.28125 4.5q-4.5625 1.5 -9.46875 1.5q-6.609375 0 -12.4375 -2.515625q-5.8125 -2.53125 -10.140625 -6.84375q-4.3125 -4.328125 -6.78125 -10.203125q-2.453125 -5.875 -2.453125 -12.59375q0 -6.734375 2.515625 -12.609375q2.53125 -5.875 6.84375 -10.1875q4.328125 -4.328125 10.265625 -6.78125q5.9375 -2.46875 12.65625 -2.46875q4.5625 0 8.9375 1.265625q4.390625 1.25 8.109375 3.65625l0 -25.5625l16.4375 -3.59375l0 87.59375l-16.203125 0zm-33.359375 -31.3125q0 7.546875 5.28125 12.828125q5.28125 5.28125 12.96875 5.28125q4.546875 0 8.328125 -1.546875q3.78125 -1.5625 6.546875 -4.453125l0 -24.359375q-2.640625 -2.75 -6.546875 -4.3125q-3.890625 -1.5625 -8.328125 -1.5625q-7.8125 0 -13.03125 5.21875q-5.21875 5.21875 -5.21875 12.90625zm118.558685 23.515625q-5.75 4.671875 -11.8125 6.84375q-6.0625 2.15625 -13.5 2.15625q-7.078125 0 -13.265625 -2.515625q-6.171875 -2.53125 -10.671875 -6.84375q-4.5 -4.328125 -7.09375 -10.265625q-2.578125 -5.9375 -2.578125 -12.78125q0 -6.71875 2.453125 -12.65625q2.46875 -5.9375 6.78125 -10.3125q4.328125 -4.390625 10.265625 -6.90625q5.953125 -2.515625 12.671875 -2.515625q6.59375 0 12.296875 2.578125q5.703125 2.578125 9.84375 7.015625q4.140625 4.4375 6.46875 10.625q2.34375 6.171875 2.34375 13.375l0 4.3125l-46.5625 0q1.6875 5.890625 6.484375 9.5q4.796875 3.59375 11.28125 3.59375q4.078125 0 7.671875 -1.3125q3.609375 -1.328125 6.125 -3.734375l10.796875 9.84375zm-27.109375 -42.25q-5.640625 0 -9.734375 3.421875q-4.078125 3.421875 -5.625 9.1875l30.59375 0q-1.5625 -5.515625 -5.703125 -9.0625q-4.140625 -3.546875 -9.53125 -3.546875zm41.39801 50.046875l0 -62.515625l16.4375 0l0 6.828125q3.0 -4.078125 7.25 -6.171875q4.265625 -2.09375 9.421875 -2.09375q2.40625 0.109375 4.015625 0.421875q1.625 0.296875 2.828125 1.015625l0 14.390625q-1.796875 -0.828125 -3.96875 -1.25q-2.15625 -0.421875 -4.421875 -0.421875q-4.8125 0 -8.828125 2.40625q-4.015625 2.390625 -6.296875 6.953125l0 40.4375l-16.4375 0z" fill-rule="nonzero"/><path fill="#000000" d="m617.86053 357.8515l6.125 -6.359375q6.484375 6.84375 13.859375 10.390625q7.390625 3.53125 15.546875 3.53125q9.84375 0 16.203125 -4.671875q6.359375 -4.6875 6.359375 -11.890625q0 -6.46875 -4.5 -9.953125q-4.5 -3.484375 -14.828125 -5.15625l-12.125 -1.921875q-12.109375 -1.921875 -17.875 -7.140625q-5.765625 -5.21875 -5.765625 -14.109375q0 -10.4375 8.15625 -16.90625q8.171875 -6.484375 21.375 -6.484375q8.75 0 17.390625 2.890625q8.640625 2.875 15.71875 8.265625l-5.265625 7.203125q-6.84375 -5.15625 -13.921875 -7.796875q-7.078125 -2.640625 -14.28125 -2.640625q-9.0 0 -14.59375 4.140625q-5.578125 4.140625 -5.578125 10.609375q0 5.890625 3.953125 9.015625q3.96875 3.109375 13.09375 4.546875l12.0 1.921875q13.6875 2.28125 19.984375 7.8125q6.296875 5.515625 6.296875 15.234375q0 5.515625 -2.34375 10.140625q-2.34375 4.609375 -6.609375 7.921875q-4.25 3.296875 -10.1875 5.15625q-5.9375 1.859375 -13.015625 1.859375q-9.96875 0 -19.15625 -4.015625q-9.171875 -4.03125 -16.015625 -11.59375zm130.09058 8.046875q-5.046875 3.71875 -10.515625 5.578125q-5.453125 1.859375 -11.921875 1.859375q-6.484375 0 -12.1875 -2.390625q-5.703125 -2.40625 -9.84375 -6.609375q-4.140625 -4.203125 -6.546875 -9.890625q-2.390625 -5.703125 -2.390625 -12.3125q0 -6.46875 2.34375 -12.109375q2.34375 -5.640625 6.296875 -9.84375q3.96875 -4.203125 9.421875 -6.59375q5.453125 -2.40625 11.578125 -2.40625q6.0 0 11.21875 2.40625q5.21875 2.390625 9.0 6.59375q3.78125 4.203125 6.0 9.84375q2.21875 5.640625 2.21875 12.109375l0 2.765625l-49.3125 0q0.953125 8.875 7.3125 14.765625q6.359375 5.875 15.25 5.875q4.671875 0 9.109375 -1.4375q4.453125 -1.4375 7.453125 -4.078125l5.515625 5.875zm-24.0 -46.921875q-7.796875 0 -13.5 5.28125q-5.703125 5.28125 -6.90625 13.5625l40.203125 0q-1.203125 -7.921875 -6.78125 -13.375q-5.578125 -5.46875 -13.015625 -5.46875zm41.039307 53.28125l0 -60.125l8.875 0l0 8.53125q2.640625 -4.6875 6.953125 -7.265625q4.328125 -2.578125 9.84375 -2.578125q1.6875 0 3.0 0.1875q1.328125 0.171875 2.640625 0.65625l0 8.15625q-1.5625 -0.484375 -3.125 -0.78125q-1.546875 -0.296875 -3.109375 -0.296875q-5.515625 0 -9.71875 3.1875q-4.203125 3.171875 -6.484375 9.171875l0 41.15625l-8.875 0zm62.998047 0l-26.046875 -60.125l9.84375 0l20.515625 48.609375l20.53125 -48.609375l9.46875 0l-25.90625 60.125l-8.40625 0zm90.72247 -6.359375q-5.046875 3.71875 -10.515625 5.578125q-5.453125 1.859375 -11.921875 1.859375q-6.484375 0 -12.1875 -2.390625q-5.703125 -2.40625 -9.84375 -6.609375q-4.140625 -4.203125 -6.546875 -9.890625q-2.390625 -5.703125 -2.390625 -12.3125q0 -6.46875 2.34375 -12.109375q2.34375 -5.640625 6.296875 -9.84375q3.96875 -4.203125 9.421875 -6.59375q5.453125 -2.40625 11.578125 -2.40625q6.0 0 11.21875 2.40625q5.21875 2.390625 9.0 6.59375q3.78125 4.203125 6.0 9.84375q2.21875 5.640625 2.21875 12.109375l0 2.765625l-49.3125 0q0.953125 8.875 7.3125 14.765625q6.359375 5.875 15.25 5.875q4.671875 0 9.109375 -1.4375q4.453125 -1.4375 7.453125 -4.078125l5.515625 5.875zm-24.0 -46.921875q-7.796875 0 -13.5 5.28125q-5.703125 5.28125 -6.90625 13.5625l40.203125 0q-1.203125 -7.921875 -6.78125 -13.375q-5.578125 -5.46875 -13.015625 -5.46875zm41.039307 53.28125l0 -60.125l8.875 0l0 8.53125q2.640625 -4.6875 6.953125 -7.265625q4.328125 -2.578125 9.84375 -2.578125q1.6875 0 3.0 0.1875q1.328125 0.171875 2.640625 0.65625l0 8.15625q-1.5625 -0.484375 -3.125 -0.78125q-1.546875 -0.296875 -3.109375 -0.296875q-5.515625 0 -9.71875 3.1875q-4.203125 3.171875 -6.484375 9.171875l0 41.15625l-8.875 0z" fill-rule="nonzero"/><path fill="#f3b22d" d="m491.12973 194.3716l28.75589 0l0 39.685028l-28.75589 0z" fill-rule="evenodd"/><path fill="#f3b22d" d="m530.51013 222.42564l0 -39.685043l28.75592 39.685043z" fill-rule="evenodd"/><path fill="#ea823d" d="m559.2878 182.71617l0 39.685043l-28.75592 -39.685043z" fill-rule="evenodd"/><path fill="#ea823d" d="m541.32996 70.10239l77.00787 0l0 100.7874l-77.00787 0z" fill-rule="evenodd"/><path fill="#f3b22d" d="m453.4775 182.74593l0 -100.78741l77.007904 100.78741z" fill-rule="evenodd"/><path fill="#ea823d" d="m530.51013 81.9532l0 100.7874l-77.00787 -100.7874z" fill-rule="evenodd"/></g></svg>